<?xml version="1.0" encoding="utf-8"?>
<!-- Generator: Adobe Illustrator 16.0.0, SVG Export Plug-In . SVG Version: 6.00 Build 0)  -->
<!DOCTYPE svg PUBLIC "-//W3C//DTD SVG 1.1//EN" "http://www.w3.org/Graphics/SVG/1.1/DTD/svg11.dtd">
<svg version="1.1" id="Layer_1" xmlns="http://www.w3.org/2000/svg" xmlns:xlink="http://www.w3.org/1999/xlink" x="0px" y="0px"
	 width="512px" height="512px" viewBox="0 0 512 512" enable-background="new 0 0 512 512" xml:space="preserve">
<g>
	<path fill="#F1C40F" d="M204,360l26,26l-26,78l78-78l-26-26l26-52L204,360z M464,157.552c0-39.931-32.5-72.413-72.448-72.413
		c-1.946,0-3.876,0.067-5.806,0.219C366.957,61.931,338.639,48,308,48c-30.621,0-58.957,13.931-77.747,37.358
		c-1.93-0.152-3.876-0.219-5.84-0.219C184.5,85.139,152,117.622,152,157.552c0,4.181,0.559,8.227,1.219,12.222
		c-0.44,0.575-0.965,1.1-1.388,1.692c-4.249-0.609-8.514-0.914-12.831-0.914c-50.172,0-91,40.828-91,91c0,50.173,40.828,91,91,91
		c11.122,0,22.006-2.03,32.264-5.958c0.897,0.779,1.963,1.32,2.877,2.082l23.003-15.336c-7.668-5.435-14.828-11.477-20.82-18.688
		c-10.562,7.431-23.41,11.899-37.325,11.899c-35.902,0-65-29.08-65-65c0-35.886,29.098-65,65-65c8.785,0,17.113,1.795,24.731,4.942
		c0.457-0.88,1.016-1.625,1.472-2.472c4.57-8.345,10.207-15.979,16.792-22.784c18.755-19.415,44.823-31.688,74.005-31.688
		c40.389,0,75.021,23.292,92.252,56.943c4.587-1.896,9.48-3.115,14.523-3.927l10.225-1.016c10.021,0,19.398,2.472,27.878,6.5
		c9.191,4.401,17.08,10.867,23.275,18.857c8.531,10.986,13.847,24.646,13.847,39.643c0,35.92-29.098,65-65,65
		c-13.914,0-26.744-4.469-37.325-11.9c-11.375,13.711-26.355,24.02-43.181,30.52l-4.858,9.699l14.828,14.828
		c13.863-5.399,26.83-13.152,38.272-23.105c10.258,3.928,21.142,5.958,32.264,5.958c50.172,0,91-40.827,91-91
		c0-20.853-7.347-39.879-19.229-55.25C456.619,193.403,464,176.392,464,157.552z M426.27,188.122
		c-15.015-10.918-33.312-17.57-53.27-17.57c-4.316,0-8.582,0.305-12.831,0.914C335.896,138.408,297.59,118.552,256,118.552
		c-27.727,0-53.878,8.988-75.512,24.663c6.077-18.568,23.342-32.076,43.925-32.076c6.297,0,12.238,1.269,17.672,3.521
		C254.425,90.622,279.156,74,308,74s53.591,16.622,65.881,40.659c5.467-2.251,11.442-3.521,17.671-3.521
		c25.662,0,46.448,20.786,46.448,46.413C438,169.333,433.48,179.947,426.27,188.122z"/>
</g>
</svg>
