<?xml version="1.0" encoding="utf-8"?>
<!-- Generator: Adobe Illustrator 16.0.0, SVG Export Plug-In . SVG Version: 6.00 Build 0)  -->
<!DOCTYPE svg PUBLIC "-//W3C//DTD SVG 1.1//EN" "http://www.w3.org/Graphics/SVG/1.1/DTD/svg11.dtd">
<svg version="1.1" id="Layer_1" xmlns="http://www.w3.org/2000/svg" xmlns:xlink="http://www.w3.org/1999/xlink" x="0px" y="0px"
	 width="512px" height="512px" viewBox="0 0 512 512" enable-background="new 0 0 512 512" xml:space="preserve">
<g>
	<path fill="#F1C40F" d="M312.909,371.496l-14.625-8.43c0.44-2.539,0.778-5.128,0.778-7.82c0-2.69-0.338-5.281-0.812-7.82
		l14.659-8.446c6.839-3.995,9.174-12.78,5.247-19.585c-3.962-6.889-12.729-9.242-19.602-5.281l-14.777,8.531
		c-3.963-3.368-8.43-6.009-13.406-7.803v-16.979c0-7.938-6.45-14.371-14.372-14.371s-14.354,6.433-14.354,14.371v16.961
		c-4.978,1.778-9.462,4.452-13.423,7.82l-14.744-8.531c-6.889-3.961-15.675-1.625-19.636,5.265
		c-3.961,6.839-1.574,15.641,5.281,19.603l14.592,8.43c-0.475,2.557-0.779,5.146-0.779,7.838c0,2.69,0.305,5.281,0.779,7.816
		l-14.591,8.432c-6.873,3.961-9.242,12.797-5.281,19.653s12.747,9.19,19.602,5.231l14.761-8.481c3.96,3.352,8.447,5.992,13.44,7.769
		v17.013c0,7.921,6.432,14.319,14.354,14.319s14.371-6.398,14.371-14.319v-17.013c4.977-1.777,9.497-4.418,13.424-7.82l14.761,8.531
		c6.872,3.961,15.64,1.625,19.602-5.23C322.117,384.293,319.781,375.508,312.909,371.496z M256,369.617
		c-7.922,0-14.372-6.449-14.372-14.371s6.45-14.338,14.372-14.338s14.354,6.416,14.354,14.338S263.922,369.617,256,369.617z
		 M373,141c-4.316,0-8.582,0.305-12.831,0.914C335.896,108.839,297.59,89,256,89c-41.59,0-79.878,19.839-104.169,52.914
		C147.582,141.305,143.316,141,139,141c-50.172,0-91,40.828-91,91s40.828,91,91,91c9.597,0,18.959-1.794,27.981-4.74
		c0.863-4.129,2.217-8.158,4.367-11.898c3.2-5.569,7.769-10.004,13-13.408c-2.691-2.624-5.637-4.96-8.023-7.872
		C165.762,292.531,152.914,297,139,297c-35.903,0-65-29.098-65-65c0-35.903,29.097-65,65-65c8.785,0,17.113,1.794,24.731,4.942
		C180.979,138.292,215.611,115,256,115s75.021,23.292,92.252,56.942C355.887,168.794,364.232,167,373,167c35.902,0,65,29.097,65,65
		c0,35.902-29.098,65-65,65c-13.914,0-26.744-4.469-37.324-11.917c-2.388,2.911-5.366,5.248-8.041,7.872
		c5.248,3.418,9.852,7.871,13.034,13.456c2.2,3.774,3.538,7.787,4.4,11.849c8.989,2.946,18.333,4.74,27.931,4.74
		c50.172,0,91-40.828,91-91S423.172,141,373,141z"/>
</g>
</svg>
