<?xml version="1.0" encoding="utf-8"?>
<!-- Generator: Adobe Illustrator 16.0.0, SVG Export Plug-In . SVG Version: 6.00 Build 0)  -->
<!DOCTYPE svg PUBLIC "-//W3C//DTD SVG 1.1//EN" "http://www.w3.org/Graphics/SVG/1.1/DTD/svg11.dtd">
<svg version="1.1" id="Layer_1" xmlns="http://www.w3.org/2000/svg" xmlns:xlink="http://www.w3.org/1999/xlink" x="0px" y="0px"
	 width="512px" height="512px" viewBox="0 0 512 512" enable-background="new 0 0 512 512" xml:space="preserve">
<g>
	<g>
		<path fill="#F1C40F" d="M413.401,401.911c-83.268,83.337-218.848,83.337-302.185,0s-83.337-218.917,0-302.22
			c22.052-22.017,48.938-38.816,79.859-49.773c9.739-3.409,20.521-0.939,27.756,6.331c7.304,7.304,9.774,18.086,6.331,27.756
			c-20.939,59.06-6.678,122.989,37.146,166.814c43.756,43.791,107.686,58.016,166.814,37.147c9.669-3.443,20.486-0.974,27.756,6.33
			c7.305,7.235,9.738,18.052,6.295,27.756C452.287,352.973,435.453,379.859,413.401,401.911z M148.99,137.464
			c-62.503,62.503-62.503,164.206,0,226.674c66.781,66.815,180.518,60.798,238.743-13.635
			c-60.033,3.756-119.162-17.913-163.197-61.912c-44.034-43.999-65.668-103.128-61.912-163.162
			C157.824,129.187,153.268,133.187,148.99,137.464z"/>
	</g>
</g>
</svg>
