<?xml version="1.0" encoding="utf-8"?>
<!-- Generator: Adobe Illustrator 16.0.0, SVG Export Plug-In . SVG Version: 6.00 Build 0)  -->
<!DOCTYPE svg PUBLIC "-//W3C//DTD SVG 1.1//EN" "http://www.w3.org/Graphics/SVG/1.1/DTD/svg11.dtd">
<svg version="1.1" id="Layer_1" xmlns="http://www.w3.org/2000/svg" xmlns:xlink="http://www.w3.org/1999/xlink" x="0px" y="0px"
	 width="512px" height="512px" viewBox="0 0 512 512" enable-background="new 0 0 512 512" xml:space="preserve">
<g>
	<path fill="#F1C40F" d="M451.134,238.133h-70.741C373.404,175.914,321.079,127.2,257,127.2c-43.17,0-81.25,22.063-103.675,55.466
		H62.867c-7.655,0-13.867,6.211-13.867,13.867c0,7.656,6.211,13.867,13.867,13.867h76.989c-3.141,8.847-5.182,18.11-6.247,27.733
		H90.6c-7.655,0-13.867,6.211-13.867,13.867s6.211,13.867,13.867,13.867h43.008c1.065,9.605,3.106,18.902,6.247,27.732H65.394
		C56.331,293.6,49,299.812,49,307.467c0,7.655,7.331,13.866,16.394,13.866h87.931C175.75,354.754,213.829,376.8,257,376.8
		s81.25-22.046,103.674-55.467h32.467c9.062,0,16.394-6.211,16.394-13.866c0-7.654-7.332-13.867-16.394-13.867h-18.996
		c3.142-8.828,5.164-18.127,6.248-27.731h70.741c7.655,0,13.866-6.212,13.866-13.867C465,244.346,458.789,238.133,451.134,238.133z
		 M169.665,210.4H257c7.654,0,13.866-6.211,13.866-13.867c0-7.656-6.212-13.867-13.866-13.867h-67.727
		c17.515-17.098,41.365-27.733,67.727-27.733c48.785,0,88.87,36.292,95.658,83.2H161.342
		C162.75,228.33,165.531,219.03,169.665,210.4z M257,349.066c-26.361,0-50.213-10.652-67.727-27.733h135.435
		C307.213,338.414,283.361,349.066,257,349.066z M344.316,293.6H169.665c-4.134-8.629-6.915-17.929-8.323-27.731h191.316
		C351.25,275.671,348.469,284.971,344.316,293.6z"/>
</g>
</svg>
