<?xml version="1.0" encoding="utf-8"?>
<!-- Generator: Adobe Illustrator 16.0.0, SVG Export Plug-In . SVG Version: 6.00 Build 0)  -->
<!DOCTYPE svg PUBLIC "-//W3C//DTD SVG 1.1//EN" "http://www.w3.org/Graphics/SVG/1.1/DTD/svg11.dtd">
<svg version="1.1" id="Layer_1" xmlns="http://www.w3.org/2000/svg" xmlns:xlink="http://www.w3.org/1999/xlink" x="0px" y="0px"
	 width="512px" height="512px" viewBox="0 0 512 512" enable-background="new 0 0 512 512" xml:space="preserve">
<g>
	<path fill="#F1C40F" d="M312.909,408.496l-14.625-8.431c0.44-2.538,0.778-5.128,0.778-7.819c0-2.69-0.338-5.281-0.812-7.82
		l14.659-8.445c6.839-3.995,9.174-12.78,5.247-19.586c-3.963-6.889-12.729-9.241-19.602-5.28l-14.777,8.53
		c-3.963-3.367-8.43-6.009-13.406-7.803v-16.979c0-7.938-6.45-14.371-14.372-14.371s-14.354,6.433-14.354,14.371v16.961
		c-4.978,1.777-9.462,4.452-13.423,7.819l-14.744-8.53c-6.889-3.961-15.675-1.625-19.636,5.265
		c-3.961,6.839-1.574,15.641,5.281,19.604l14.592,8.43c-0.475,2.557-0.779,5.146-0.779,7.838s0.305,5.281,0.779,7.818l-14.591,8.43
		c-6.873,3.961-9.242,12.797-5.281,19.653c3.961,6.855,12.747,9.189,19.602,5.23l14.761-8.48c3.96,3.352,8.447,5.991,13.44,7.769
		v17.013c0,7.921,6.432,14.319,14.354,14.319s14.371-6.398,14.371-14.319v-17.013c4.977-1.777,9.497-4.418,13.424-7.82l14.762,8.531
		c6.871,3.961,15.64,1.625,19.602-5.229C322.117,421.293,319.781,412.508,312.909,408.496z M256,406.617
		c-7.922,0-14.372-6.449-14.372-14.371s6.45-14.338,14.372-14.338s14.354,6.416,14.354,14.338S263.922,406.617,256,406.617z
		 M464,191c0-50.172-40.828-91-91-91c-4.316,0-8.582,0.305-12.831,0.914C335.896,67.839,297.59,48,256,48
		s-79.878,19.839-104.169,52.914C147.582,100.305,143.316,100,139,100c-50.172,0-91,40.828-91,91s40.828,91,91,91
		c11.122,0,22.006-2.031,32.264-5.958C194.791,296.559,224.719,308,256,308c31.314,0,61.208-11.441,84.736-31.958
		C350.994,279.969,361.879,282,373,282C423.172,282,464,241.172,464,191z M335.676,244.083C316.6,267.07,288.193,282,256,282
		c-32.195,0-60.6-14.93-79.675-37.917C165.762,251.531,152.914,256,139,256c-35.903,0-65-29.097-65-65s29.097-65,65-65
		c8.785,0,17.113,1.794,24.731,4.942C180.979,97.292,215.611,74,256,74c40.389,0,75.021,23.292,92.252,56.942
		C355.887,127.794,364.232,126,373,126c35.902,0,65,29.097,65,65s-29.098,65-65,65C359.086,256,346.256,251.531,335.676,244.083z"/>
</g>
</svg>
