<?xml version="1.0" encoding="utf-8"?>
<!-- Generator: Adobe Illustrator 16.0.0, SVG Export Plug-In . SVG Version: 6.00 Build 0)  -->
<!DOCTYPE svg PUBLIC "-//W3C//DTD SVG 1.1//EN" "http://www.w3.org/Graphics/SVG/1.1/DTD/svg11.dtd">
<svg version="1.1" id="Layer_1" xmlns="http://www.w3.org/2000/svg" xmlns:xlink="http://www.w3.org/1999/xlink" x="0px" y="0px"
	 width="512px" height="512px" viewBox="0 0 512 512" enable-background="new 0 0 512 512" xml:space="preserve">
<g>
	<path fill="#F1C40F" d="M312.909,408.496l-14.625-8.431c0.44-2.538,0.778-5.127,0.778-7.819c0-2.69-0.338-5.281-0.812-7.82
		l14.659-8.446c6.839-3.995,9.174-12.78,5.247-19.585c-3.962-6.889-12.729-9.242-19.602-5.281l-14.777,8.531
		c-3.963-3.368-8.43-6.009-13.406-7.803v-16.979c0-7.938-6.45-14.371-14.372-14.371s-14.354,6.433-14.354,14.371v16.961
		c-4.978,1.778-9.462,4.452-13.423,7.82l-14.744-8.531c-6.889-3.961-15.675-1.625-19.636,5.265
		c-3.961,6.839-1.574,15.641,5.281,19.603l14.592,8.43c-0.475,2.557-0.779,5.146-0.779,7.838s0.305,5.281,0.779,7.818l-14.591,8.43
		c-6.873,3.961-9.242,12.797-5.281,19.653s12.747,9.19,19.602,5.231l14.761-8.481c3.96,3.352,8.447,5.992,13.44,7.769v17.013
		c0,7.921,6.432,14.319,14.354,14.319s14.371-6.398,14.371-14.319v-17.013c4.977-1.777,9.497-4.418,13.424-7.82l14.761,8.531
		c6.872,3.961,15.64,1.625,19.602-5.23C322.117,421.293,319.781,412.508,312.909,408.496z M256,406.617
		c-7.922,0-14.372-6.449-14.372-14.371s6.45-14.338,14.372-14.338s14.354,6.416,14.354,14.338S263.922,406.617,256,406.617z
		 M433.26,369.953l-9.817-2.606c-0.236-3.114-0.981-6.077-2.353-8.921l7.126-7.126c3.352-3.352,3.335-8.769,0-12.069
		c-3.317-3.334-8.7-3.352-12.052,0l-7.143,7.109c-2.811-1.32-5.807-2.081-8.904-2.336l-2.607-9.8
		c-1.218-4.536-5.891-7.263-10.46-6.044c-4.554,1.236-7.211,5.908-6.026,10.461l2.607,9.666c-1.287,0.881-2.506,1.862-3.656,2.979
		c-1.117,1.151-2.065,2.369-2.946,3.623l-9.665-2.607c-4.554-1.218-9.26,1.524-10.479,6.044c-1.218,4.57,1.524,9.225,6.026,10.461
		l9.75,2.623c0.271,3.064,1.05,6.06,2.421,8.904l-7.16,7.16c-3.317,3.334-3.301,8.717,0.034,12.034
		c3.317,3.317,8.7,3.352,12.019,0.034l7.176-7.177c2.811,1.387,5.824,2.166,8.938,2.402l2.572,9.767
		c1.253,4.554,5.891,7.263,10.462,6.044c4.536-1.219,7.277-5.89,6.06-10.495l-2.607-9.666c1.219-0.862,2.472-1.828,3.623-2.945
		c1.117-1.134,2.065-2.387,2.944-3.639l9.683,2.607c4.554,1.219,9.242-1.506,10.444-6.026
		C440.488,375.877,437.797,371.206,433.26,369.953z M404.129,375.387c-3.352,3.352-8.752,3.335-12.086,0
		c-3.301-3.3-3.335-8.717,0-12.068c3.334-3.317,8.751-3.317,12.086,0C407.43,366.652,407.43,372.086,404.129,375.387z
		 M144.637,326.281l-9.648,2.59c-0.897-1.219-1.828-2.454-2.962-3.605c-1.15-1.117-2.369-2.082-3.639-2.945l2.59-9.699
		c1.219-4.554-1.49-9.242-5.992-10.444c-4.57-1.219-9.242,1.49-10.461,6.026l-2.641,9.801c-3.098,0.253-6.06,1.016-8.887,2.353
		l-7.16-7.126c-3.352-3.352-8.734-3.335-12.053,0c-3.334,3.334-3.334,8.734,0,12.068l7.126,7.127
		c-1.337,2.844-2.116,5.84-2.353,8.92l-9.784,2.606c-4.57,1.253-7.279,5.891-6.06,10.461c1.236,4.536,5.908,7.211,10.478,6.026
		l9.648-2.625c0.863,1.304,1.828,2.523,2.997,3.658c1.117,1.117,2.336,2.115,3.605,2.945l-2.59,9.665
		c-1.219,4.57,1.49,9.276,6.025,10.495c4.571,1.219,9.209-1.489,10.428-6.043l2.641-9.75c3.097-0.254,6.094-1.033,8.938-2.388
		l7.143,7.144c3.318,3.351,8.701,3.283,12.053-0.034c3.3-3.3,3.352-8.7,0-12.034l-7.16-7.16c1.372-2.812,2.184-5.84,2.387-8.938
		l9.8-2.591c4.52-1.235,7.228-5.891,6.009-10.461C153.896,327.806,149.225,325.097,144.637,326.281z M119.957,349.403
		c-3.334,3.335-8.734,3.335-12.086,0c-3.3-3.317-3.3-8.751,0-12.052c3.352-3.317,8.751-3.317,12.086,0
		S123.258,346.086,119.957,349.403z M464,191c0-50.172-40.828-91-91-91c-4.316,0-8.582,0.305-12.831,0.914
		C335.896,67.839,297.59,48,256,48c-41.59,0-79.878,19.839-104.169,52.914C147.582,100.305,143.316,100,139,100
		c-50.172,0-91,40.828-91,91s40.828,91,91,91c11.122,0,22.006-2.031,32.264-5.958C194.791,296.558,224.719,308,256,308
		c31.315,0,61.208-11.442,84.736-31.958C350.994,279.969,361.879,282,373,282C423.172,282,464,241.172,464,191z M335.676,244.083
		C316.6,267.07,288.194,282,256,282c-32.195,0-60.6-14.93-79.675-37.917C165.762,251.531,152.914,256,139,256
		c-35.903,0-65-29.097-65-65s29.097-65,65-65c8.785,0,17.113,1.794,24.731,4.942C180.979,97.292,215.611,74,256,74
		s75.021,23.292,92.252,56.942C355.887,127.794,364.232,126,373,126c35.902,0,65,29.097,65,65s-29.098,65-65,65
		C359.086,256,346.256,251.531,335.676,244.083z"/>
</g>
</svg>
