<?xml version="1.0" encoding="utf-8"?>
<!-- Generator: Adobe Illustrator 16.0.0, SVG Export Plug-In . SVG Version: 6.00 Build 0)  -->
<!DOCTYPE svg PUBLIC "-//W3C//DTD SVG 1.1//EN" "http://www.w3.org/Graphics/SVG/1.1/DTD/svg11.dtd">
<svg version="1.1" id="Layer_1" xmlns="http://www.w3.org/2000/svg" xmlns:xlink="http://www.w3.org/1999/xlink" x="0px" y="0px"
	 width="512px" height="512px" viewBox="0 0 512 512" enable-background="new 0 0 512 512" xml:space="preserve">
<g>
	<path fill="#F1C40F" d="M401.488,246.063c3.961-2.945,7.973-5.84,11.562-9.428c10.731-10.749,18.907-23.833,24.205-38.881
		c1.693-4.706,0.491-9.987-3.063-13.508c-3.538-3.555-8.785-4.757-13.508-3.081c-28.759,10.156-59.871,3.25-81.165-18.078
		c-21.328-21.328-28.269-52.423-18.078-81.165c1.658-4.723,0.474-9.97-3.081-13.525c-3.521-3.521-8.785-4.74-13.508-3.081
		c-15.065,5.349-28.133,13.508-38.864,24.239c-27.253,27.219-35.733,65.812-26.39,100.581
		c-35.141,4.485-66.727,23.156-87.767,51.831c-4.249-0.609-8.515-0.914-12.831-0.914c-50.172,0-91,40.828-91,91s40.828,91,91,91
		c11.121,0,22.005-2.031,32.263-5.958c23.529,20.516,53.456,31.958,84.737,31.958c31.315,0,61.208-11.442,84.737-31.958
		c10.258,3.927,21.142,5.958,32.263,5.958c50.172,0,91-40.828,91-91C464,291.885,437.661,258.099,401.488,246.063z M284.37,107.938
		c2.064-2.099,4.282-4.045,6.618-5.874c-1.828,29.233,8.718,57.992,30.147,79.405c21.43,21.43,50.188,31.958,79.422,30.147
		c-11.206,14.286-26.644,23.173-43.164,26.965c-22.242-28.234-54.929-46.008-90.967-48.902
		C256.457,162.088,262.297,130.012,284.37,107.938z M373,397.053c-13.914,0-26.745-4.469-37.324-11.916
		c-19.077,22.986-47.48,37.916-79.676,37.916s-60.599-14.93-79.676-37.916c-10.562,7.447-23.41,11.916-37.324,11.916
		c-35.902,0-65-29.098-65-65s29.098-65,65-65c8.785,0,17.113,1.777,24.73,4.926c16.402-31.975,48.547-54.353,86.379-56.502
		c1.98-0.119,3.91-0.423,5.891-0.423c10.495,0,20.566,1.642,30.062,4.537c12.831,3.927,24.527,10.325,34.684,18.569
		c9.699,7.871,17.824,17.52,24.223,28.353c1.083,1.828,2.302,3.555,3.284,5.467c7.634-3.148,15.979-4.926,24.747-4.926
		c35.902,0,65,29.098,65,65S408.902,397.053,373,397.053z"/>
</g>
</svg>
