<?xml version="1.0" encoding="utf-8"?>
<!-- Generator: Adobe Illustrator 16.0.0, SVG Export Plug-In . SVG Version: 6.00 Build 0)  -->
<!DOCTYPE svg PUBLIC "-//W3C//DTD SVG 1.1//EN" "http://www.w3.org/Graphics/SVG/1.1/DTD/svg11.dtd">
<svg version="1.1" id="Layer_1" xmlns="http://www.w3.org/2000/svg" xmlns:xlink="http://www.w3.org/1999/xlink" x="0px" y="0px"
	 width="512px" height="512px" viewBox="0 0 512 512" enable-background="new 0 0 512 512" xml:space="preserve">
<g>
	<path fill="#F1C40F" d="M451.134,238.133h-70.742C373.404,175.914,321.079,127.2,257,127.2c-43.17,0-81.25,22.063-103.675,55.466
		H62.867c-7.655,0-13.867,6.211-13.867,13.867S55.211,210.4,62.867,210.4h76.989c-3.141,8.847-5.182,18.11-6.247,27.733H90.6
		c-7.655,0-13.867,6.211-13.867,13.867s6.211,13.867,13.867,13.867h43.008c1.065,9.605,3.106,18.903,6.247,27.732H65.394
		C56.331,293.6,49,299.812,49,307.467s7.331,13.866,16.394,13.866h87.931C175.75,354.754,213.829,376.8,257,376.8
		c43.171,0,81.25-22.046,103.674-55.467h32.466c9.062,0,16.394-6.211,16.394-13.866S402.202,293.6,393.14,293.6h-18.995
		c3.141-8.829,5.164-18.127,6.247-27.732h70.742c7.655,0,13.866-6.212,13.866-13.867S458.789,238.133,451.134,238.133z
		 M169.665,210.4H257c7.655,0,13.866-6.211,13.866-13.867s-6.211-13.867-13.866-13.867h-67.727
		c17.515-17.098,41.365-27.733,67.727-27.733c48.785,0,88.87,36.292,95.658,83.2H161.342
		C162.75,228.33,165.531,219.03,169.665,210.4z M257,349.066c-26.361,0-50.213-10.652-67.727-27.733h135.435
		C307.213,338.414,283.361,349.066,257,349.066z M344.316,293.6H169.665c-4.134-8.63-6.915-17.929-8.323-27.732h191.316
		C351.25,275.671,348.469,284.97,344.316,293.6z"/>
</g>
</svg>
