<?xml version="1.0" encoding="utf-8"?>
<!-- Generator: Adobe Illustrator 16.0.0, SVG Export Plug-In . SVG Version: 6.00 Build 0)  -->
<!DOCTYPE svg PUBLIC "-//W3C//DTD SVG 1.1//EN" "http://www.w3.org/Graphics/SVG/1.1/DTD/svg11.dtd">
<svg version="1.1" id="Layer_1" xmlns="http://www.w3.org/2000/svg" xmlns:xlink="http://www.w3.org/1999/xlink" x="0px" y="0px"
	 width="512px" height="512px" viewBox="0 0 512 512" enable-background="new 0 0 512 512" xml:space="preserve">
<g>
	<path fill="#F1C40F" d="M464,194.86c0-39.948-32.5-72.431-72.448-72.431c-1.946,0-3.876,0.084-5.806,0.236
		c-18.789-23.444-47.108-37.357-77.747-37.357c-30.622,0-58.957,13.913-77.746,37.358c-1.93-0.153-3.876-0.236-5.84-0.236
		C184.5,122.429,152,154.912,152,194.86c0,4.181,0.559,8.209,1.219,12.222c-0.44,0.575-0.965,1.1-1.388,1.692
		c-4.249-0.609-8.514-0.914-12.831-0.914c-50.172,0-91,40.827-91,90.999c0,50.173,40.828,91,91,91
		c11.122,0,22.006-2.031,32.264-5.958c23.527,20.516,53.455,31.958,84.736,31.958c31.315,0,61.208-11.442,84.736-31.958
		c10.258,3.927,21.143,5.958,32.264,5.958c50.172,0,91-40.827,91-91c0-20.871-7.347-39.88-19.229-55.249
		C456.619,230.695,464,213.684,464,194.86z M373,363.859c-13.914,0-26.744-4.468-37.324-11.916
		c-19.077,22.986-47.481,37.916-79.676,37.916c-32.195,0-60.6-14.93-79.675-37.916c-10.562,7.448-23.41,11.916-37.325,11.916
		c-35.903,0-65-29.098-65-65s29.097-64.999,65-64.999c8.785,0,17.113,1.778,24.731,4.925c0.457-0.863,1.016-1.625,1.472-2.455
		c4.57-8.345,10.207-15.997,16.791-22.784c18.756-19.432,44.823-31.688,74.006-31.688c40.389,0,75.021,23.291,92.252,56.925
		c4.588-1.878,9.48-3.098,14.523-3.91L373,233.859c10.021,0,19.398,2.472,27.879,6.5c9.19,4.4,17.079,10.867,23.274,18.84
		c8.531,10.986,13.847,24.663,13.847,39.66C438,334.762,408.902,363.859,373,363.859z M426.27,225.43
		c-15.015-10.935-33.312-17.569-53.27-17.569c-4.316,0-8.582,0.305-12.831,0.914C335.896,175.699,297.59,155.86,256,155.86
		c-27.727,0-53.878,8.972-75.512,24.646c6.077-18.569,23.342-32.077,43.925-32.077c6.297,0,12.238,1.269,17.672,3.52
		c12.34-24.019,37.07-40.641,65.914-40.641s53.591,16.621,65.881,40.641c5.468-2.25,11.442-3.52,17.671-3.52
		c25.662,0,46.448,20.786,46.448,46.431C438,206.625,433.48,217.237,426.27,225.43z"/>
</g>
</svg>
