<?xml version="1.0" encoding="utf-8"?>
<!-- Generator: Adobe Illustrator 16.0.0, SVG Export Plug-In . SVG Version: 6.00 Build 0)  -->
<!DOCTYPE svg PUBLIC "-//W3C//DTD SVG 1.1//EN" "http://www.w3.org/Graphics/SVG/1.1/DTD/svg11.dtd">
<svg version="1.1" id="Layer_1" xmlns="http://www.w3.org/2000/svg" xmlns:xlink="http://www.w3.org/1999/xlink" x="0px" y="0px"
	 width="512px" height="512px" viewBox="0 0 512 512" enable-background="new 0 0 512 512" xml:space="preserve">
<g>
	<path fill-rule="evenodd" clip-rule="evenodd" fill="#F1C40F" d="M68.8,152.5h374.4c11.483,0,20.8-9.316,20.8-20.8
		s-9.316-20.8-20.8-20.8H68.8c-11.483,0-20.8,9.317-20.8,20.8S57.316,152.5,68.8,152.5z"/>
	<path fill-rule="evenodd" clip-rule="evenodd" fill="#F1C40F" d="M443.2,194.1H68.8c-11.483,0-20.8,9.317-20.8,20.8
		c0,11.483,9.316,20.8,20.8,20.8h374.4c11.483,0,20.8-9.317,20.8-20.8C464,203.417,454.684,194.1,443.2,194.1z"/>
	<path fill-rule="evenodd" clip-rule="evenodd" fill="#F1C40F" d="M443.2,277.3H68.8c-11.483,0-20.8,9.317-20.8,20.8
		c0,11.483,9.316,20.801,20.8,20.801h374.4c11.483,0,20.8-9.317,20.8-20.801C464,286.617,454.684,277.3,443.2,277.3z"/>
	<path fill-rule="evenodd" clip-rule="evenodd" fill="#F1C40F" d="M443.2,360.5H68.8c-11.483,0-20.8,9.316-20.8,20.8
		s9.316,20.8,20.8,20.8h374.4c11.483,0,20.8-9.316,20.8-20.8S454.684,360.5,443.2,360.5z"/>
</g>
</svg>
