<?xml version="1.0" encoding="utf-8"?>
<!-- Generator: Adobe Illustrator 16.0.0, SVG Export Plug-In . SVG Version: 6.00 Build 0)  -->
<!DOCTYPE svg PUBLIC "-//W3C//DTD SVG 1.1//EN" "http://www.w3.org/Graphics/SVG/1.1/DTD/svg11.dtd">
<svg version="1.1" id="Layer_1" xmlns="http://www.w3.org/2000/svg" xmlns:xlink="http://www.w3.org/1999/xlink" x="0px" y="0px"
	 width="512px" height="512px" viewBox="0 0 512 512" enable-background="new 0 0 512 512" xml:space="preserve">
<path fill="#F1C40F" d="M440.713,309.776l-47.499-27.42c1.517-8.25,2.548-16.682,2.548-25.356c0-8.705-1.031-17.167-2.608-25.417
	l47.499-27.45c22.322-12.921,29.906-41.402,17.076-63.604c-12.891-22.293-41.312-29.937-63.605-17.106l-47.953,27.692
	c-12.83-10.919-27.449-19.533-43.585-25.266V70.646c0-25.721-20.838-46.588-46.589-46.588c-25.721,0-46.589,20.867-46.589,46.588
	v55.172c-16.136,5.732-30.755,14.347-43.585,25.266l-47.862-27.632c-22.293-12.86-50.805-5.247-63.695,17.046
	c-12.83,22.263-5.187,50.744,17.107,63.604l47.407,27.389c-1.547,8.281-2.548,16.773-2.548,25.509
	c0,8.675,1.001,17.137,2.548,25.387l-47.438,27.39c-22.324,12.86-29.967,41.401-17.077,63.695
	c12.83,22.202,41.341,29.846,63.665,17.016l47.802-27.632c12.83,10.919,27.48,19.594,43.676,25.356v55.143
	c0,25.751,20.868,46.588,46.589,46.588c25.751,0,46.589-20.837,46.589-46.588v-55.203c16.196-5.763,30.847-14.377,43.616-25.326
	l47.922,27.662c22.294,12.83,50.775,5.187,63.605-17.016C470.619,351.178,463.006,322.697,440.713,309.776z M209.407,257
	c0-25.721,20.838-46.589,46.589-46.589c25.721,0,46.589,20.868,46.589,46.589s-20.868,46.588-46.589,46.588
	C230.245,303.588,209.407,282.721,209.407,257z"/>
</svg>
