<?xml version="1.0" encoding="utf-8"?>
<!-- Generator: Adobe Illustrator 16.0.0, SVG Export Plug-In . SVG Version: 6.00 Build 0)  -->
<!DOCTYPE svg PUBLIC "-//W3C//DTD SVG 1.1//EN" "http://www.w3.org/Graphics/SVG/1.1/DTD/svg11.dtd">
<svg version="1.1" id="Layer_1" xmlns="http://www.w3.org/2000/svg" xmlns:xlink="http://www.w3.org/1999/xlink" x="0px" y="0px"
	 width="512px" height="512px" viewBox="0 0 512 512" enable-background="new 0 0 512 512" xml:space="preserve">
<g>
	<path fill="#F1C40F" d="M464,157.552c0-39.931-32.5-72.413-72.448-72.413c-1.946,0-3.876,0.067-5.806,0.219
		C366.957,61.931,338.639,48,308,48c-30.621,0-58.957,13.931-77.747,37.358c-1.93-0.152-3.876-0.219-5.84-0.219
		C184.5,85.139,152,117.622,152,157.552c0,4.181,0.559,8.227,1.219,12.222c-0.44,0.575-0.965,1.1-1.388,1.692
		c-4.249-0.609-8.514-0.914-12.831-0.914c-50.172,0-91,40.828-91,91c0,50.173,40.828,91,91,91c11.122,0,22.006-2.03,32.264-5.958
		c14.913,13,32.584,21.887,51.355,26.981L204,386l26,26l-26,52l78-52l-26-26l3.91-7.786c29.859-0.914,58.297-11.968,80.826-31.62
		c10.258,3.928,21.143,5.958,32.264,5.958c50.172,0,91-40.827,91-91c0-20.854-7.347-39.88-19.229-55.25
		C456.619,193.403,464,176.392,464,157.552z M373,326.552c-13.914,0-26.744-4.469-37.324-11.899
		c-15.438,18.603-37.172,31.467-61.937,35.852l-19.314,1.878c-31.535-0.507-59.363-15.132-78.101-37.729
		c-10.562,7.432-23.41,11.9-37.325,11.9c-35.903,0-65-29.08-65-65c0-35.886,29.097-65,65-65c8.785,0,17.113,1.795,24.731,4.942
		c0.457-0.88,1.016-1.625,1.472-2.472c4.57-8.345,10.207-15.979,16.791-22.784c18.756-19.416,44.823-31.688,74.006-31.688
		c40.389,0,75.021,23.292,92.252,56.942c4.588-1.896,9.48-3.114,14.523-3.927L373,196.552c10.021,0,19.398,2.472,27.879,6.5
		c9.19,4.401,17.079,10.867,23.274,18.856C432.685,232.894,438,246.555,438,261.552C438,297.472,408.902,326.552,373,326.552z
		 M426.27,188.122c-15.015-10.918-33.312-17.57-53.27-17.57c-4.316,0-8.582,0.305-12.831,0.914
		C335.896,138.408,297.59,118.552,256,118.552c-27.727,0-53.878,8.988-75.512,24.663c6.077-18.568,23.342-32.076,43.925-32.076
		c6.297,0,12.238,1.269,17.672,3.521C254.425,90.622,279.156,74,308,74s53.591,16.622,65.881,40.659
		c5.467-2.251,11.442-3.521,17.671-3.521c25.662,0,46.448,20.786,46.448,46.413C438,169.333,433.48,179.947,426.27,188.122z"/>
</g>
</svg>
