<?xml version="1.0" encoding="utf-8"?>
<!-- Generator: Adobe Illustrator 16.0.0, SVG Export Plug-In . SVG Version: 6.00 Build 0)  -->
<!DOCTYPE svg PUBLIC "-//W3C//DTD SVG 1.1//EN" "http://www.w3.org/Graphics/SVG/1.1/DTD/svg11.dtd">
<svg version="1.1" id="Layer_1" xmlns="http://www.w3.org/2000/svg" xmlns:xlink="http://www.w3.org/1999/xlink" x="0px" y="0px"
	 width="512px" height="512px" viewBox="0 0 512 512" enable-background="new 0 0 512 512" xml:space="preserve">
<g>
	<path fill="#F1C40F" d="M373,100c-4.316,0-8.582,0.305-12.831,0.914C335.896,67.839,297.59,48,256,48
		c-41.59,0-79.878,19.839-104.169,52.914C147.582,100.305,143.316,100,139,100c-50.172,0-91,40.828-91,91s40.828,91,91,91
		c11.122,0,22.006-2.031,32.264-5.958C194.791,296.558,224.719,308,256,308c31.315,0,61.208-11.442,84.736-31.958
		C350.994,279.969,361.879,282,373,282c50.172,0,91-40.828,91-91S423.172,100,373,100z M373,256c-7.889,0-15.607-1.422-22.953-4.231
		l-14.625-5.62l-11.781,10.292C304.75,272.927,280.73,282,256,282c-24.731,0-48.75-9.073-67.641-25.56l-11.781-10.292l-14.625,5.62
		C154.641,254.578,146.889,256,139,256c-35.852,0-65-29.166-65-65s29.148-65,65-65c3.081,0,6.094,0.22,9.141,0.644l15.403,2.234
		l9.225-12.56C192.523,89.42,222.857,74,256,74c33.16,0,63.477,15.403,83.214,42.301l9.242,12.577l15.437-2.234
		C366.906,126.22,369.919,126,373,126c35.852,0,65,29.166,65,65S408.852,256,373,256z M126,308c-14.372,0-26,11.629-26,26
		s11.628,26,26,26s26-11.629,26-26S140.372,308,126,308z M256,334c-14.372,0-26,11.629-26,26s11.628,26,26,26
		c14.371,0,26-11.629,26-26S270.371,334,256,334z M386,308c-14.371,0-26,11.629-26,26s11.629,26,26,26s26-11.629,26-26
		S400.371,308,386,308z M334,412c-14.371,0-26,11.629-26,26s11.629,26,26,26s26-11.629,26-26S348.371,412,334,412z M178,412
		c-14.372,0-26,11.629-26,26s11.628,26,26,26s26-11.629,26-26S192.372,412,178,412z"/>
</g>
</svg>
