<?xml version="1.0" encoding="utf-8"?>
<!-- Generator: Adobe Illustrator 16.0.0, SVG Export Plug-In . SVG Version: 6.00 Build 0)  -->
<!DOCTYPE svg PUBLIC "-//W3C//DTD SVG 1.1//EN" "http://www.w3.org/Graphics/SVG/1.1/DTD/svg11.dtd">
<svg version="1.1" id="Layer_1" xmlns="http://www.w3.org/2000/svg" xmlns:xlink="http://www.w3.org/1999/xlink" x="0px" y="0px"
	 width="512px" height="512px" viewBox="0 0 512 512" enable-background="new 0 0 512 512" xml:space="preserve">
<g>
	<path fill="#F1C40F" d="M373,126c-4.316,0-8.582,0.305-12.831,0.914C335.896,93.839,297.59,74,256,74
		c-41.59,0-79.878,19.839-104.169,52.914C147.582,126.305,143.316,126,139,126c-50.172,0-91,40.828-91,91s40.828,91,91,91
		c11.122,0,22.006-2.031,32.264-5.958C194.791,322.558,224.719,334,256,334c31.315,0,61.208-11.442,84.736-31.958
		C350.994,305.969,361.879,308,373,308c50.172,0,91-40.828,91-91S423.172,126,373,126z M373,282
		c-13.914,0-26.744-4.469-37.324-11.917C316.6,293.07,288.194,308,256,308c-32.195,0-60.6-14.93-79.675-37.917
		C165.762,277.531,152.914,282,139,282c-35.903,0-65-29.097-65-65s29.097-65,65-65c8.785,0,17.113,1.794,24.731,4.942
		C180.979,123.292,215.611,100,256,100s75.021,23.292,92.252,56.942C355.887,153.794,364.232,152,373,152c35.902,0,65,29.097,65,65
		S408.902,282,373,282z M230,412c0,14.371,11.628,26,26,26c14.371,0,26-11.629,26-26s-26-52-26-52S230,397.629,230,412z"/>
</g>
</svg>
