<?xml version="1.0" encoding="utf-8"?>
<!-- Generator: Adobe Illustrator 16.0.0, SVG Export Plug-In . SVG Version: 6.00 Build 0)  -->
<!DOCTYPE svg PUBLIC "-//W3C//DTD SVG 1.1//EN" "http://www.w3.org/Graphics/SVG/1.1/DTD/svg11.dtd">
<svg version="1.1" id="Layer_1" xmlns="http://www.w3.org/2000/svg" xmlns:xlink="http://www.w3.org/1999/xlink" x="0px" y="0px"
	 width="512px" height="512px" viewBox="0 0 512 512" enable-background="new 0 0 512 512" xml:space="preserve">
<g>
	<path fill="#F1C40F" d="M373,178c-4.316,0-8.582,0.305-12.831,0.914C335.896,145.839,297.59,126,256,126
		c-41.59,0-79.878,19.839-104.169,52.914C147.582,178.305,143.316,178,139,178c-50.172,0-91,40.828-91,91s40.828,91,91,91
		c11.122,0,22.006-2.031,32.264-5.958C194.791,374.558,224.719,386,256,386c31.315,0,61.208-11.442,84.736-31.958
		C350.994,357.969,361.879,360,373,360c50.172,0,91-40.828,91-91S423.172,178,373,178z M373,334
		c-13.914,0-26.744-4.469-37.324-11.917C316.6,345.069,288.194,360,256,360c-32.195,0-60.6-14.931-79.675-37.917
		C165.762,329.531,152.914,334,139,334c-35.903,0-65-29.098-65-65c0-35.903,29.097-65,65-65c8.785,0,17.113,1.794,24.731,4.942
		C180.979,175.292,215.611,152,256,152s75.021,23.292,92.252,56.942C355.887,205.794,364.232,204,373,204c35.902,0,65,29.097,65,65
		C438,304.902,408.902,334,373,334z"/>
</g>
</svg>
