<?xml version="1.0" encoding="utf-8"?>
<!-- Generator: Adobe Illustrator 16.0.0, SVG Export Plug-In . SVG Version: 6.00 Build 0)  -->
<!DOCTYPE svg PUBLIC "-//W3C//DTD SVG 1.1//EN" "http://www.w3.org/Graphics/SVG/1.1/DTD/svg11.dtd">
<svg version="1.1" id="Layer_1" xmlns="http://www.w3.org/2000/svg" xmlns:xlink="http://www.w3.org/1999/xlink" x="0px" y="0px"
	 width="512px" height="512px" viewBox="0 0 512 512" enable-background="new 0 0 512 512" xml:space="preserve">
<g>
	<path fill="#F1C40F" d="M217,100c7.177,0,13-5.823,13-13V61c0-7.177-5.823-13-13-13s-13,5.823-13,13v26
		C204,94.177,209.823,100,217,100z M318.105,134.261l18.383-18.383c5.078-5.078,5.078-13.305,0-18.383s-13.305-5.078-18.383,0
		l-18.383,18.383c-5.078,5.078-5.078,13.305,0,18.383S313.027,139.339,318.105,134.261z M61,230h26c7.177,0,13-5.823,13-13
		s-5.823-13-13-13H61c-7.177,0-13,5.823-13,13S53.823,230,61,230z M334,217c0,7.177,5.823,13,13,13h26c7.177,0,13-5.823,13-13
		s-5.823-13-13-13h-26C339.823,204,334,209.823,334,217z M115.877,134.261c5.079,5.078,13.306,5.078,18.383,0
		c5.079-5.078,5.079-13.305,0-18.383l-18.383-18.383c-5.078-5.078-13.304-5.078-18.383,0c-5.078,5.078-5.078,13.305,0,18.383
		L115.877,134.261z M373,256c-4.316,0-8.582,0.305-12.831,0.914c-13.626-18.586-31.788-32.771-52.372-41.844
		C306.748,165.812,266.512,126,217,126c-50.172,0-91,40.828-91,91c0,14.168,3.521,27.422,9.344,39.356
		C86.898,258.336,48,298.098,48,347c0,50.172,40.828,91,91,91c11.122,0,22.006-2.031,32.264-5.958
		C194.791,452.558,224.719,464,256,464c31.315,0,61.208-11.442,84.736-31.958C350.994,435.969,361.879,438,373,438
		c50.172,0,91-40.828,91-91S423.172,256,373,256z M217,152c32.347,0,58.957,23.698,63.95,54.641
		C272.809,205.016,264.498,204,256,204c-37.325,0-71.906,16.097-96.18,43.266C154.997,238.192,152,228.003,152,217
		C152,181.097,181.097,152,217,152z M373,412c-13.914,0-26.744-4.469-37.324-11.917C316.6,423.07,288.194,438,256,438
		c-32.195,0-60.6-14.93-79.675-37.917C165.762,407.531,152.914,412,139,412c-35.903,0-65-29.098-65-65s29.097-65,65-65
		c6.297,0,12.238,1.185,17.977,2.877c2.285,0.644,4.604,1.151,6.753,2.049c3.555-6.957,8.023-13.322,12.983-19.297
		C195.706,244.778,223.957,230,256,230c8.227,0,16.115,1.185,23.766,3.014c8.582,2.03,16.69,5.111,24.24,9.174
		c18.924,10.055,34.463,25.628,44.246,44.738C355.887,283.777,364.232,282,373,282c35.902,0,65,29.098,65,65S408.902,412,373,412z"
		/>
</g>
</svg>
