<?xml version="1.0" encoding="utf-8"?>
<!-- Generator: Adobe Illustrator 16.0.0, SVG Export Plug-In . SVG Version: 6.00 Build 0)  -->
<!DOCTYPE svg PUBLIC "-//W3C//DTD SVG 1.1//EN" "http://www.w3.org/Graphics/SVG/1.1/DTD/svg11.dtd">
<svg version="1.1" id="Layer_1" xmlns="http://www.w3.org/2000/svg" xmlns:xlink="http://www.w3.org/1999/xlink" x="0px" y="0px"
	 width="512px" height="512px" viewBox="0 0 512 512" enable-background="new 0 0 512 512" xml:space="preserve">
<g>
	<g>
		<path fill="#F1C40F" d="M167.978,276.57h-0.946l-30.447-46.496l-37.185-54.896H70.56v160.223h31.848V234.484h1.381l26.436,40.458
			l40.591,60.46h29.01V175.179h-31.848V276.57z M211.01,345.166h23.465l58.851-178.332h-23.729L211.01,345.166z M385.634,175.179
			h-32.548L296.79,335.401h33.948l10.465-33.04h55.824l9.764,33.04h34.648L385.634,175.179z M349.812,275.643l6.49-21.157
			l12.357-41.63h0.908l12.583,42.331l6.265,20.457L349.812,275.643L349.812,275.643z"/>
	</g>
</g>
</svg>
